:SAMPLES-PER-SECOND 30
:FULLY-SPECIFIED
:DEGREES
1164
root  70.967 39.5107 -24.3953 -3.20447 -36.2958 -2.76912
RightUpLeg  -17.1638 -20.5898 -7.18133
RightLeg  10.7991 -8.60623 0.370163
RightFoot  1.94481 -0.144814 1.35649
RightToes  0.00048216 0.542163 -0.142577
Spine  19.7058 -0.2894 -5.77597
Spine1  6.18082 -2.27961 3.39158
HEad  1.93658 -1.13746 2.88887
LeftShoulder1  10.3304 -14.9838 -48.786
LeftArm  -16.9682 8.72046 -20.3309
LeftForeArm  23.9464 -23.0012 -3.68925
LeftHand  -0.25398 0.0180481 5.50724
RightShoulder  5.11432 8.55525 36.4185
RightArm  11.6271 -28.1154 38.7973
RightForeArm  -5.63484 23.5001 5.31837
RightHand  -0.718015 -0.110094 -15.7159
LeftUpLeg  15.179 10.2104 6.80281
LeftLeg  8.28145 29.5935 -3.3585
LeftFoot  -13.1445 -0.0633208 -9.01836
LeftToes  1.06245e-005 4.65856e-005 -8.18504e-006
1165
root  70.3362 39.3614 -24.1663 -3.67932 -37.4208 -2.05162
RightUpLeg  -16.8944 -20.3984 -7.63885
RightLeg  10.0694 -10.4951 0.619358
RightFoot  1.72094 -0.14683 1.38681
RightToes  0.00048216 0.542163 -0.142577
Spine  19.5598 -0.332039 -5.87937
Spine1  6.22251 -2.32939 3.28078
HEad  2.05015 -0.122293 2.45972
LeftShoulder1  10.2402 -14.9285 -48.5032
LeftArm  -17.023 7.39505 -20.2622
LeftForeArm  24.3012 -23.692 -3.79461
LeftHand  -0.25398 0.0180481 5.50724
RightShoulder  5.11942 8.56655 36.4211
RightArm  11.0743 -28.1276 38.5942
RightForeArm  -4.08389 23.0921 5.20783
RightHand  -0.428724 -1.90269 -13.9149
LeftUpLeg  16.0791 10.4266 7.01771
LeftLeg  9.05729 30.0523 -3.12519
LeftFoot  -13.5032 -0.101256 -9.60726
LeftToes  1.06245e-005 4.65856e-005 -8.18504e-006
1166
root  69.5961 39.1682 -23.8958 -4.21765 -38.4889 -1.3342
RightUpLeg  -16.8824 -21.2126 -7.34533
RightLeg  10.6261 -10.2554 0.226716
RightFoot  0.940173 -0.15479 1.494
RightToes  0.00048216 0.542163 -0.142577
Spine  19.3411 -0.317061 -5.82288
Spine1  6.51786 -2.29056 3.09389
HEad  1.83703 0.355693 2.07417
LeftShoulder1  10.1829 -14.8984 -48.3092
LeftArm  -17.0717 6.09445 -20.3104
LeftForeArm  24.346 -24.2928 -3.916
LeftHand  -0.25398 0.0180481 5.50724
RightShoulder  5.1171 8.56912 36.3936
RightArm  10.4066 -28.0228 38.2955
RightForeArm  -2.52962 22.1024 5.17133
RightHand  -0.248061 -3.23225 -12.5371
LeftUpLeg  17.1907 10.6163 7.38997
LeftLeg  9.90236 29.828 -2.84955
LeftFoot  -13.9381 -0.171865 -11.208
LeftToes  1.06245e-005 4.65856e-005 -8.18504e-006
1167
root  68.7494 38.9864 -23.5833 -4.51282 -39.6111 -0.705307
RightUpLeg  -17.1773 -22.2855 -6.41657
RightLeg  11.9442 -8.97576 -0.377748
RightFoot  0.410318 -0.0926772 0.929183
RightToes  0.00048216 0.542163 -0.142577
Spine  18.9399 -0.269858 -5.53889
Spine1  6.86618 -2.20211 3.08855
HEad  1.68362 -0.157855 1.79636
LeftShoulder1  10.1342 -14.8135 -48.3009
LeftArm  -17.0855 5.19756 -20.4224
LeftForeArm  24.1457 -24.9854 -4.07341
LeftHand  -0.25398 0.0180481 5.50724
RightShoulder  5.09996 8.54973 36.3214
RightArm  9.12245 -27.9221 37.8479
RightForeArm  -1.32055 20.7456 5.36703
RightHand  -0.298751 -2.75171 -12.4925
LeftUpLeg  18.551 10.7123 7.84156
LeftLeg  10.0041 29.7694 -2.85339
LeftFoot  -13.9783 -0.225889 -13.421
LeftToes  1.06245e-005 4.65856e-005 -8.18504e-006
1168
root  67.795 38.8734 -23.2394 -4.23303 -40.6725 -0.486511
RightUpLeg  -17.8417 -23.2844 -4.8927
RightLeg  13.6639 -7.28172 -0.918514
RightFoot  0.984513 0.0545989 -0.429628
RightToes  0.00048216 0.542163 -0.142577
Spine  18.4434 -0.319254 -4.62948
Spine1  7.03493 -2.08035 3.04833
HEad  1.46828 -1.3954 1.48182
LeftShoulder1  10.0841 -14.7006 -48.3607
LeftArm  -16.9194 4.90827 -20.637
LeftForeArm  23.9418 -25.8303 -4.26543
LeftHand  -0.25398 0.0180481 5.50724
RightShoulder  5.06587 8.48418 36.2698
RightArm  6.71413 -27.9324 37.3927
RightForeArm  0.071774 19.475 5.64084
RightHand  -0.449924 -1.43571 -12.9986
LeftUpLeg  19.8149 10.9165 8.74131
LeftLeg  9.75554 30.0636 -2.87302
LeftFoot  -13.1938 -0.164456 -14.9259
LeftToes  1.06245e-005 4.65856e-005 -8.18504e-006
1169
root  66.7259 38.8099 -22.8613 -3.24084 -41.6465 -1.10385
RightUpLeg  -18.8107 -23.8977 -2.77891
RightLeg  16.0002 -5.43194 -1.5335
RightFoot  2.04424 0.217339 -1.73673
RightToes  0.00048216 0.542163 -0.142577
Spine  17.9776 -0.608303 -2.70325
Spine1  6.94449 -1.93557 2.56539
HEad  1.25253 -1.58056 1.17203
LeftShoulder1  10.0622 -14.6911 -48.2803
LeftArm  -16.8019 5.50968 -21.0121
LeftForeArm  24.0349 -26.8315 -4.47883
LeftHand  -0.25398 0.0180481 5.50724
RightShoulder  5.08903 8.52076 36.332
RightArm  3.66048 -27.888 36.9629
RightForeArm  1.47267 18.3476 5.85026
RightHand  -0.47908 -1.21825 -13.1627
LeftUpLeg  20.9274 11.9295 10.9278
LeftLeg  10.0047 28.72 -2.69589
LeftFoot  -11.9034 -0.0116782 -16.878
LeftToes  1.06245e-005 4.65856e-005 -8.18504e-006
1170
root  65.5375 38.7527 -22.4512 -1.81506 -42.6063 -2.52618
RightUpLeg  -19.3509 -23.0446 -0.727742
RightLeg  18.8042 -4.86008 -2.10084
RightFoot  2.06409 0.302877 -2.45796
RightToes  0.00048216 0.542163 -0.142577
Spine  17.5975 -1.14076 -0.20399
Spine1  6.68493 -1.90333 1.97749
HEad  1.2743 -1.01499 0.673383
LeftShoulder1  10.0287 -14.7457 -47.9715
LeftArm  -16.8312 7.22441 -21.5652
LeftForeArm  24.4462 -27.8969 -4.69325
LeftHand  -0.25398 0.0180481 5.50724
RightShoulder  5.23362 8.8039 36.5277
RightArm  1.02448 -27.5256 36.351
RightForeArm  1.95627 17.2352 6.07164
RightHand  -0.380128 -2.16544 -13.3165
LeftUpLeg  22.3304 15.5463 15.2293
LeftLeg  11.124 23.4965 -1.98322
LeftFoot  -10.3288 0.260087 -21.2824
LeftToes  1.06245e-005 4.65856e-005 -8.18504e-006
1171
root  64.2447 38.7242 -22.0396 -0.542358 -43.5718 -4.16954
RightUpLeg  -18.7356 -21.7897 1.02119
RightLeg  21.0781 -5.16238 -2.4048
RightFoot  0.519189 0.321931 -3.07222
RightToes  0.00048216 0.542163 -0.142577
Spine  17.4892 -1.72708 1.89235
Spine1  6.27688 -2.08275 1.99126
HEad  2.02756 -0.310065 0.13482
LeftShoulder1  9.87355 -14.6202 -47.5497
LeftArm  -16.4175 9.73371 -22.2194
LeftForeArm  24.9969 -28.842 -4.877
LeftHand  -0.25398 0.0180481 5.50724
RightShoulder  5.40389 9.13832 36.7448
RightArm  -0.527109 -26.8306 35.52
RightForeArm  1.18045 16.5305 6.23578
RightHand  -0.380113 -2.40857 -14.2629
LeftUpLeg  23.5638 22.8552 21.188
LeftLeg  14.1311 15.7779 0.919457
LeftFoot  -7.43859 0.932013 -25.4326
LeftToes  1.06245e-005 4.65856e-005 -8.18504e-006
